<svg width="102" height="101" viewBox="0 0 102 101" fill="none" xmlns="http://www.w3.org/2000/svg">
<rect width="102" height="101" rx="50.5" fill="white"/>
<path d="M33.7216 71C35.7718 71 37.4645 69.345 37.4645 67.3393C37.4621 67.0703 37.4285 66.8025 37.3643 66.5409L43.5353 60.524L51.3777 60.5041C52.6517 60.5041 54.0055 60.0563 54.9414 59.1606L71.4034 43.2709C72.2187 42.4916 72.1788 41.2454 71.4034 40.486C70.6475 39.7075 69.3532 39.7075 68.5761 40.486L52.7111 56.0059C52.1548 56.551 51.4576 56.8825 50.6219 56.8825H45.0878L44.7897 56.5319V50.6903C44.7897 49.8918 45.1082 49.1906 45.6645 48.6456L61.2916 33.379C62.0874 32.5997 62.067 31.3534 61.2916 30.575C61.1066 30.3913 60.8858 30.2457 60.6423 30.147C60.3987 30.0482 60.1374 29.9983 59.8738 30C59.6102 30.0018 59.3496 30.0553 59.1075 30.1573C58.8654 30.2594 58.6467 30.4079 58.4643 30.5941L42.2019 46.7172C41.2464 47.691 40.8286 48.9372 40.8286 50.2034L40.8082 57.5829L34.5183 63.756C34.2567 63.7001 33.9894 63.6739 33.7216 63.6779C31.6714 63.6779 30 65.3146 30 67.3393C30 69.345 31.6714 71 33.7216 71Z" fill="#8F72E3"/>
</svg>
