<svg width="20" height="19" viewBox="0 0 20 19" fill="none" xmlns="http://www.w3.org/2000/svg">
<path d="M13.192 14.1154H12.3635L12.7496 14.8484L14.6729 18.5H14.2644L12.0957 14.3824L11.9551 14.1154H11.6533H8.35467H8.0529L7.91227 14.3824L5.74357 18.5H5.33512L7.25839 14.8484L7.64446 14.1154H6.816H2.66667C2.63805 14.1154 2.60019 14.1033 2.56465 14.0644C2.5277 14.0239 2.5 13.9599 2.5 13.8846V1.46154V0.961538H2H0.666667C0.63805 0.961538 0.600195 0.949488 0.564645 0.91052C0.527698 0.87002 0.5 0.806032 0.5 0.730769C0.5 0.655506 0.527698 0.591518 0.564645 0.551018C0.600195 0.51205 0.63805 0.5 0.666667 0.5H19.3333C19.3619 0.5 19.3998 0.51205 19.4354 0.551018C19.4723 0.591519 19.5 0.655508 19.5 0.730769C19.5 0.806031 19.4723 0.870019 19.4354 0.91052C19.3998 0.949488 19.3619 0.961538 19.3333 0.961538H18H17.5V1.46154V13.8846C17.5 13.9599 17.4723 14.0239 17.4354 14.0644C17.3998 14.1033 17.362 14.1154 17.3333 14.1154H13.192ZM17.1667 1.46154V0.961538H16.6667H3.33333H2.83333V1.46154V13.1538V13.6538H3.33333H16.6667H17.1667V13.1538V1.46154ZM6.66667 7.80769C6.69528 7.80769 6.73314 7.81974 6.76869 7.85871C6.80564 7.89921 6.83333 7.9632 6.83333 8.03846V9.5C6.83333 9.57526 6.80563 9.63925 6.76869 9.67975C6.73314 9.71872 6.69529 9.73077 6.66667 9.73077C6.63805 9.73077 6.60019 9.71872 6.56464 9.67975C6.5277 9.63925 6.5 9.57526 6.5 9.5V8.03846C6.5 7.9632 6.5277 7.89921 6.56464 7.85871C6.60019 7.81974 6.63805 7.80769 6.66667 7.80769ZM10 6.34615C10.0286 6.34615 10.0665 6.3582 10.102 6.39717C10.139 6.43767 10.1667 6.50166 10.1667 6.57692V9.5C10.1667 9.57526 10.139 9.63925 10.102 9.67975C10.0665 9.71872 10.0286 9.73077 10 9.73077C9.97138 9.73077 9.93353 9.71872 9.89798 9.67975C9.86103 9.63925 9.83333 9.57526 9.83333 9.5V6.57692C9.83333 6.50166 9.86103 6.43767 9.89798 6.39717C9.93353 6.3582 9.97138 6.34615 10 6.34615ZM13.3333 4.88462C13.3619 4.88462 13.3998 4.89667 13.4354 4.93563C13.4723 4.97613 13.5 5.04012 13.5 5.11538V9.5C13.5 9.57526 13.4723 9.63925 13.4354 9.67975C13.3998 9.71872 13.362 9.73077 13.3333 9.73077C13.3047 9.73077 13.2669 9.71872 13.2313 9.67975C13.1944 9.63925 13.1667 9.57526 13.1667 9.5V5.11538C13.1667 5.04012 13.1944 4.97613 13.2313 4.93563C13.2669 4.89667 13.3047 4.88462 13.3333 4.88462Z" fill="white" stroke="white"/>
</svg>
