<svg width="16" height="16" viewBox="0 0 16 16" fill="none" xmlns="http://www.w3.org/2000/svg">
<path d="M14.5183 7.98094V6.66766C14.623 6.84368 14.6883 7.0735 14.6883 7.3243C14.6883 7.57511 14.623 7.80492 14.5183 7.98094ZM1.30678 8.62744H0.636719V6.02117H1.30678H1.80678V5.52117V5.40096C1.80678 5.10011 1.90084 4.82947 2.04398 4.64564C2.18485 4.46474 2.34525 4.39835 2.47683 4.39835H6.17416C6.17418 4.39835 6.1742 4.39835 6.17421 4.39835C6.40495 4.39836 6.62913 4.34098 6.83315 4.23498L12.6059 1.31526L12.6133 1.31148L12.6207 1.30745C12.7114 1.2577 12.8009 1.24154 12.8849 1.25076C12.9685 1.25994 13.0605 1.2959 13.1517 1.37045C13.1797 1.39512 13.2071 1.4232 13.2334 1.45464L12.5926 1.78224L6.81008 4.73822C6.80972 4.7384 6.80937 4.73858 6.80901 4.73876C6.7272 4.77996 6.64421 4.81143 6.56097 4.83349L6.18904 4.93204V5.31681V9.28371V9.62403L6.50565 9.74886C6.59197 9.7829 6.67748 9.8272 6.76104 9.88204L6.78368 9.8969L6.80779 9.90922L12.5926 12.8664L13.2335 13.194C13.2059 13.2269 13.1772 13.2561 13.1478 13.2816C13.035 13.3791 12.9191 13.4204 12.8149 13.4238C12.7485 13.423 12.6788 13.4066 12.6081 13.3705C12.6079 13.3705 12.6078 13.3704 12.6077 13.3704L6.91736 10.4497L6.18904 10.0759V10.8945V13.9358C6.18905 14.235 6.09599 14.5046 5.95396 14.6884C5.81481 14.8686 5.65605 14.9364 5.52527 14.9384H4.94116C4.84417 14.9372 4.7361 14.9015 4.6294 14.8142C4.52018 14.7249 4.41849 14.5852 4.35002 14.3999C4.34999 14.3998 4.34996 14.3998 4.34993 14.3997L2.94617 10.5779L2.8258 10.2501L2.47665 10.2503C2.34695 10.2503 2.1896 10.186 2.0501 10.0112C1.90896 9.83425 1.81316 9.57288 1.80678 9.27869V9.12744V8.62744H1.30678ZM13.3201 2.22744V1.57749C13.3458 1.62053 13.3695 1.66753 13.3906 1.71839C13.454 1.87085 13.4895 2.04629 13.4902 2.22843V12.4512C13.4856 12.6271 13.4488 12.7953 13.3862 12.9413C13.3662 12.9881 13.344 13.0315 13.3201 13.0715V12.4212V2.22744ZM6.01898 5.40096V4.90096H5.51898H2.47683H1.97683V5.40096V9.28371V9.78371H2.47683H5.51898H6.01898V9.28371V5.40096ZM5.51898 14.4358H6.01898V13.9358V10.7503V10.2503H5.51898H3.77794H3.06557L3.30771 10.9202L4.45904 14.1058L4.57833 14.4358H4.92927H5.51898Z" fill="white" stroke="white"/>
</svg>
