<svg width="20" height="20" viewBox="0 0 20 20" fill="none" xmlns="http://www.w3.org/2000/svg">
<path d="M13.6657 14.9125L16.2598 12.1808C16.2599 12.1807 16.26 12.1806 16.26 12.1805L13.6657 14.9125ZM13.6657 14.9125L13.3062 14.5336L13.3059 14.5333C13.1095 14.3264 12.8373 14.2051 12.5478 14.2051C12.2583 14.2051 11.9861 14.3264 11.7896 14.5333C11.594 14.7392 11.4883 15.0133 11.4883 15.2941C11.4883 15.5749 11.594 15.849 11.7896 16.055L12.9069 17.231C13.004 17.3334 13.1207 17.4162 13.2511 17.4732C13.3816 17.5302 13.5225 17.5599 13.6654 17.5599C13.8084 17.5599 13.9493 17.5302 14.0798 17.4732C14.2102 17.4162 14.3269 17.3334 14.424 17.231L17.7761 13.7025L13.6657 14.9125ZM3.52111 16.8303C4.82459 17.7061 6.63296 18.1471 8.63603 18.1471C8.75736 18.1471 8.87816 18.1454 8.99812 18.142C9.02973 18.2005 9.06211 18.2584 9.09525 18.3157C8.94309 18.3209 8.78994 18.3235 8.63603 18.3235C6.62677 18.3235 4.80264 17.8821 3.47728 16.993C2.14944 16.102 1.3125 14.7499 1.3125 12.9412C1.3125 11.8876 2.11777 11.0882 3.05785 11.0882H9.10028C9.06649 11.1465 9.03352 11.2054 9.00137 11.2647H3.05785C2.13402 11.2647 1.43015 12.0356 1.43015 12.9412C1.43015 14.66 2.21875 15.9575 3.52111 16.8303ZM3.52111 16.8303L3.79997 16.4153M3.52111 16.8303C3.52129 16.8304 3.52147 16.8306 3.52165 16.8307L3.79997 16.4153M3.79997 16.4153C4.99585 17.2188 6.69691 17.6471 8.63603 17.6471C8.85956 17.6471 9.08085 17.6412 9.29768 17.6294L3.79997 16.4153ZM18.0007 12.5324C17.9494 12.4022 17.8736 12.2824 17.7765 12.1803V13.702C17.8736 13.6 17.9494 13.4801 18.0007 13.35C18.0521 13.2197 18.0782 13.0809 18.0782 12.9412C18.0782 12.8015 18.0521 12.6626 18.0007 12.5324ZM4.66544 4.70588C4.66544 3.58237 5.08968 2.50972 5.83735 1.7227C6.58419 0.936548 7.59148 0.5 8.63603 0.5C9.68058 0.5 10.6879 0.936548 11.4347 1.7227C12.1824 2.50972 12.6066 3.58237 12.6066 4.70588C12.6066 5.82939 12.1824 6.90205 11.4347 7.68907C10.6879 8.47522 9.68058 8.91177 8.63603 8.91177C7.59148 8.91177 6.58419 8.47522 5.83735 7.68907C5.08968 6.90205 4.66544 5.82939 4.66544 4.70588ZM8.63603 0.676471C7.60565 0.676471 6.623 1.10757 5.90264 1.86584C5.18311 2.62323 4.78309 3.64526 4.78309 4.70588C4.78309 5.76651 5.18311 6.78853 5.90264 7.54593C6.623 8.3042 7.60565 8.73529 8.63603 8.73529C9.66641 8.73529 10.6491 8.3042 11.3694 7.54593C12.0889 6.78853 12.489 5.76651 12.489 4.70588C12.489 3.64526 12.0889 2.62323 11.3694 1.86584C10.6491 1.10757 9.66641 0.676471 8.63603 0.676471ZM19.3125 14.7059C19.3125 15.9854 18.8294 17.2077 17.9769 18.105C17.1253 19.0015 15.9758 19.5 14.7831 19.5C13.5903 19.5 12.4409 19.0015 11.5893 18.105C10.7368 17.2077 10.2537 15.9854 10.2537 14.7059C10.2537 13.4264 10.7368 12.2041 11.5893 11.3068C12.4409 10.4103 13.5903 9.91177 14.7831 9.91177C15.9758 9.91177 17.1253 10.4103 17.9769 11.3068C18.8294 12.2041 19.3125 13.4264 19.3125 14.7059Z" fill="white" stroke="white"/>
</svg>
