<svg width="19" height="19" viewBox="0 0 19 19" fill="none" xmlns="http://www.w3.org/2000/svg">
<mask id="path-1-inside-1_4_252" fill="white">
<path d="M8.6875 2.37496C7.82912 2.37496 7.02813 2.6279 6.34525 3.06846C6.27467 2.66995 6.14602 2.28539 5.96387 1.92846C6.82033 1.42816 7.78565 1.17244 8.76441 1.18657C9.74317 1.2007 10.7015 1.48418 11.5447 2.00901C12.3879 2.53384 13.0867 3.28183 13.5721 4.17907C14.0575 5.07631 14.3127 6.09173 14.3125 7.12497H17.1261C17.5735 7.12529 18.0024 7.31309 18.3186 7.64711C18.6349 7.98112 18.8125 8.43401 18.8125 8.90622V16.0312C18.8125 16.5037 18.6347 16.9567 18.3182 17.2908C18.0018 17.6248 17.5726 17.8125 17.125 17.8125H10.375C9.92745 17.8125 9.49822 17.6248 9.18176 17.2908C8.86529 16.9567 8.6875 16.5037 8.6875 16.0312V13.0625C7.90493 13.0635 7.13082 12.8916 6.415 12.5578C6.42963 12.154 6.4375 11.7301 6.4375 11.2812V11.2397C7.099 11.6434 7.86738 11.875 8.6875 11.875V8.90622C8.6875 8.43381 8.86529 7.98074 9.18176 7.64669C9.49822 7.31264 9.92745 7.12497 10.375 7.12497H13.1875C13.1875 5.86519 12.7134 4.657 11.8695 3.7662C11.0256 2.8754 9.88097 2.37496 8.6875 2.37496ZM14.2 8.31247C13.9787 9.45315 13.445 10.5001 12.665 11.3234C11.885 12.1467 10.8931 12.7102 9.8125 12.9437V16.0312C9.8125 16.1887 9.87176 16.3397 9.97725 16.4511C10.0827 16.5624 10.2258 16.625 10.375 16.625H17.125C17.2742 16.625 17.4173 16.5624 17.5227 16.4511C17.6282 16.3397 17.6875 16.1887 17.6875 16.0312V8.90622C17.6875 8.74875 17.6282 8.59773 17.5227 8.48638C17.4173 8.37503 17.2742 8.31247 17.125 8.31247H14.2ZM13.0457 8.31247H10.375C10.2258 8.31247 10.0827 8.37503 9.97725 8.48638C9.87176 8.59773 9.8125 8.74875 9.8125 8.90622V11.7254C10.5908 11.5125 11.301 11.0838 11.8695 10.4838C12.438 9.88366 12.8441 9.134 13.0457 8.31247ZM3.71612 0.14839C3.8095 0.234605 3.87326 0.350987 3.89747 0.479421C3.92169 0.607855 3.905 0.741135 3.85 0.858517C3.84048 0.893259 3.83555 0.929225 3.83537 0.965392C3.83537 1.0402 3.85338 1.18271 4.02325 1.36083C4.10538 1.44752 4.16838 1.50927 4.237 1.57696C4.29325 1.63158 4.35288 1.68858 4.42825 1.76696C4.5745 1.91421 4.72863 2.08758 4.867 2.3049C5.15388 2.75971 5.3125 3.32852 5.3125 4.15621C5.3125 5.16915 4.957 6.03247 4.40237 6.56209L4.47438 6.64997C4.78938 7.05847 4.97275 7.5881 5.0875 8.1106C5.3125 9.14373 5.3125 10.3859 5.3125 11.2515V11.2812C5.3125 14.5908 4.88612 16.4682 4.417 17.5417C4.18075 18.0821 3.92988 18.4264 3.71275 18.6426C3.62448 18.732 3.52714 18.8108 3.4225 18.8777C3.37459 18.9081 3.32457 18.9347 3.27287 18.9573C3.27287 18.9573 3.14575 19 3.0625 19C2.97925 19 2.85212 18.9573 2.85212 18.9573C2.79987 18.936 2.74974 18.9094 2.7025 18.8777C2.59786 18.8108 2.50052 18.732 2.41225 18.6426C2.19512 18.4252 1.94425 18.0821 1.708 17.5417C1.23888 16.4682 0.8125 14.5908 0.8125 11.2812V11.2515C0.8125 10.3847 0.8125 9.14373 1.0375 8.1106C1.15225 7.5881 1.33562 7.05847 1.65062 6.64997C1.67312 6.62028 1.69788 6.59059 1.72263 6.56209C1.168 6.03247 0.8125 5.16915 0.8125 4.15621C0.8125 3.76909 0.910375 3.30715 1.04538 2.88083C1.18038 2.45333 1.36937 2.01158 1.58762 1.65533C1.8475 1.19221 2.21312 0.803892 2.49662 0.542641C2.65205 0.398355 2.81426 0.262412 2.98262 0.135328L3.01638 0.111578L3.0265 0.103265L3.02987 0.10089L3.03213 0.0997028C3.13528 0.0271186 3.25827 -0.0074588 3.38196 0.0013459C3.50566 0.0101506 3.62313 0.061844 3.71612 0.14839ZM3.0625 5.93747C3.49787 5.93628 4.1875 5.42684 4.1875 4.15621C4.1875 3.49952 4.06487 3.17771 3.92987 2.96396C3.84779 2.83911 3.75311 2.72404 3.6475 2.62077L3.508 2.48302C3.41687 2.39277 3.31 2.28827 3.22675 2.20158C3.10371 2.07306 2.99808 1.9272 2.91288 1.76814C2.76967 1.92708 2.64365 2.10232 2.53712 2.29065C2.37962 2.54596 2.22662 2.89627 2.113 3.25727C1.996 3.6254 1.9375 3.95077 1.9375 4.15621C1.9375 5.42922 2.62938 5.93747 3.0625 5.93747ZM2.5225 7.40047C2.36275 7.60591 2.23 7.93366 2.13325 8.37779C1.93975 9.26604 1.9375 10.3823 1.9375 11.2812C1.9375 14.5029 2.35487 16.188 2.7295 17.0442C2.85325 17.3256 2.96913 17.5132 3.0625 17.6379C3.19542 17.4547 3.30721 17.2553 3.3955 17.0442C3.77013 16.188 4.1875 14.5029 4.1875 11.2812C4.1875 10.3823 4.18525 9.26604 3.99062 8.37779C3.89387 7.93366 3.76113 7.60591 3.6025 7.40047C3.54045 7.31172 3.45885 7.24025 3.36477 7.19225C3.27068 7.14425 3.16694 7.12116 3.0625 7.12497H3.06025C2.95617 7.12145 2.85285 7.14468 2.75917 7.19268C2.66549 7.24067 2.58427 7.31198 2.5225 7.40047Z"/>
</mask>
<path d="M8.6875 2.37496C7.82912 2.37496 7.02813 2.6279 6.34525 3.06846C6.27467 2.66995 6.14602 2.28539 5.96387 1.92846C6.82033 1.42816 7.78565 1.17244 8.76441 1.18657C9.74317 1.2007 10.7015 1.48418 11.5447 2.00901C12.3879 2.53384 13.0867 3.28183 13.5721 4.17907C14.0575 5.07631 14.3127 6.09173 14.3125 7.12497H17.1261C17.5735 7.12529 18.0024 7.31309 18.3186 7.64711C18.6349 7.98112 18.8125 8.43401 18.8125 8.90622V16.0312C18.8125 16.5037 18.6347 16.9567 18.3182 17.2908C18.0018 17.6248 17.5726 17.8125 17.125 17.8125H10.375C9.92745 17.8125 9.49822 17.6248 9.18176 17.2908C8.86529 16.9567 8.6875 16.5037 8.6875 16.0312V13.0625C7.90493 13.0635 7.13082 12.8916 6.415 12.5578C6.42963 12.154 6.4375 11.7301 6.4375 11.2812V11.2397C7.099 11.6434 7.86738 11.875 8.6875 11.875V8.90622C8.6875 8.43381 8.86529 7.98074 9.18176 7.64669C9.49822 7.31264 9.92745 7.12497 10.375 7.12497H13.1875C13.1875 5.86519 12.7134 4.657 11.8695 3.7662C11.0256 2.8754 9.88097 2.37496 8.6875 2.37496ZM14.2 8.31247C13.9787 9.45315 13.445 10.5001 12.665 11.3234C11.885 12.1467 10.8931 12.7102 9.8125 12.9437V16.0312C9.8125 16.1887 9.87176 16.3397 9.97725 16.4511C10.0827 16.5624 10.2258 16.625 10.375 16.625H17.125C17.2742 16.625 17.4173 16.5624 17.5227 16.4511C17.6282 16.3397 17.6875 16.1887 17.6875 16.0312V8.90622C17.6875 8.74875 17.6282 8.59773 17.5227 8.48638C17.4173 8.37503 17.2742 8.31247 17.125 8.31247H14.2ZM13.0457 8.31247H10.375C10.2258 8.31247 10.0827 8.37503 9.97725 8.48638C9.87176 8.59773 9.8125 8.74875 9.8125 8.90622V11.7254C10.5908 11.5125 11.301 11.0838 11.8695 10.4838C12.438 9.88366 12.8441 9.134 13.0457 8.31247ZM3.71612 0.14839C3.8095 0.234605 3.87326 0.350987 3.89747 0.479421C3.92169 0.607855 3.905 0.741135 3.85 0.858517C3.84048 0.893259 3.83555 0.929225 3.83537 0.965392C3.83537 1.0402 3.85338 1.18271 4.02325 1.36083C4.10538 1.44752 4.16838 1.50927 4.237 1.57696C4.29325 1.63158 4.35288 1.68858 4.42825 1.76696C4.5745 1.91421 4.72863 2.08758 4.867 2.3049C5.15388 2.75971 5.3125 3.32852 5.3125 4.15621C5.3125 5.16915 4.957 6.03247 4.40237 6.56209L4.47438 6.64997C4.78938 7.05847 4.97275 7.5881 5.0875 8.1106C5.3125 9.14373 5.3125 10.3859 5.3125 11.2515V11.2812C5.3125 14.5908 4.88612 16.4682 4.417 17.5417C4.18075 18.0821 3.92988 18.4264 3.71275 18.6426C3.62448 18.732 3.52714 18.8108 3.4225 18.8777C3.37459 18.9081 3.32457 18.9347 3.27287 18.9573C3.27287 18.9573 3.14575 19 3.0625 19C2.97925 19 2.85212 18.9573 2.85212 18.9573C2.79987 18.936 2.74974 18.9094 2.7025 18.8777C2.59786 18.8108 2.50052 18.732 2.41225 18.6426C2.19512 18.4252 1.94425 18.0821 1.708 17.5417C1.23888 16.4682 0.8125 14.5908 0.8125 11.2812V11.2515C0.8125 10.3847 0.8125 9.14373 1.0375 8.1106C1.15225 7.5881 1.33562 7.05847 1.65062 6.64997C1.67312 6.62028 1.69788 6.59059 1.72263 6.56209C1.168 6.03247 0.8125 5.16915 0.8125 4.15621C0.8125 3.76909 0.910375 3.30715 1.04538 2.88083C1.18038 2.45333 1.36937 2.01158 1.58762 1.65533C1.8475 1.19221 2.21312 0.803892 2.49662 0.542641C2.65205 0.398355 2.81426 0.262412 2.98262 0.135328L3.01638 0.111578L3.0265 0.103265L3.02987 0.10089L3.03213 0.0997028C3.13528 0.0271186 3.25827 -0.0074588 3.38196 0.0013459C3.50566 0.0101506 3.62313 0.061844 3.71612 0.14839ZM3.0625 5.93747C3.49787 5.93628 4.1875 5.42684 4.1875 4.15621C4.1875 3.49952 4.06487 3.17771 3.92987 2.96396C3.84779 2.83911 3.75311 2.72404 3.6475 2.62077L3.508 2.48302C3.41687 2.39277 3.31 2.28827 3.22675 2.20158C3.10371 2.07306 2.99808 1.9272 2.91288 1.76814C2.76967 1.92708 2.64365 2.10232 2.53712 2.29065C2.37962 2.54596 2.22662 2.89627 2.113 3.25727C1.996 3.6254 1.9375 3.95077 1.9375 4.15621C1.9375 5.42922 2.62938 5.93747 3.0625 5.93747ZM2.5225 7.40047C2.36275 7.60591 2.23 7.93366 2.13325 8.37779C1.93975 9.26604 1.9375 10.3823 1.9375 11.2812C1.9375 14.5029 2.35487 16.188 2.7295 17.0442C2.85325 17.3256 2.96913 17.5132 3.0625 17.6379C3.19542 17.4547 3.30721 17.2553 3.3955 17.0442C3.77013 16.188 4.1875 14.5029 4.1875 11.2812C4.1875 10.3823 4.18525 9.26604 3.99062 8.37779C3.89387 7.93366 3.76113 7.60591 3.6025 7.40047C3.54045 7.31172 3.45885 7.24025 3.36477 7.19225C3.27068 7.14425 3.16694 7.12116 3.0625 7.12497H3.06025C2.95617 7.12145 2.85285 7.14468 2.75917 7.19268C2.66549 7.24067 2.58427 7.31198 2.5225 7.40047Z" fill="white" stroke="white" stroke-width="2" mask="url(#path-1-inside-1_4_252)"/>
</svg>
